<svg width="24" height="24" viewBox="0 0 24 24" fill="none" xmlns="http://www.w3.org/2000/svg">
<g clip-path="url(#clip0_154_465)">
<path d="M3.12 17.6C2.29252 17.6 1.49894 17.2713 0.913827 16.6862C0.328713 16.1011 0 15.3075 0 14.48V8.72001C0 7.89253 0.328713 7.09895 0.913827 6.51383C1.49894 5.92872 2.29252 5.60001 3.12 5.60001H19.136C19.9635 5.60001 20.7571 5.92872 21.3422 6.51383C21.9273 7.09895 22.256 7.89253 22.256 8.72001V14.48C22.256 15.3075 21.9273 16.1011 21.3422 16.6862C20.7571 17.2713 19.9635 17.6 19.136 17.6H3.12ZM1.108 8.72001V14.48C1.108 15.59 2.008 16.49 3.118 16.49H19.136C19.6684 16.4889 20.1786 16.2767 20.5547 15.8999C20.9308 15.523 21.142 15.0124 21.142 14.48V8.72001C21.1415 8.18726 20.9297 7.67646 20.5531 7.29966C20.1764 6.92285 19.6657 6.7108 19.133 6.71001H3.118C2.008 6.71001 1.108 7.61001 1.107 8.72001H1.108ZM3.786 15.12C3.61388 15.12 3.44346 15.0861 3.28445 15.0202C3.12545 14.9543 2.98099 14.8577 2.85934 14.736C2.73768 14.6142 2.64121 14.4697 2.57543 14.3106C2.50966 14.1516 2.47587 13.9811 2.476 13.809V9.38601C2.47587 9.21389 2.50966 9.04344 2.57543 8.88438C2.64121 8.72533 2.73768 8.5808 2.85934 8.45905C2.98099 8.3373 3.12545 8.24072 3.28445 8.17482C3.44346 8.10892 3.61388 8.07501 3.786 8.07501H14.772C15.1191 8.07554 15.4518 8.21379 15.697 8.4594C15.9423 8.70502 16.08 9.03792 16.08 9.38501V13.813C16.0776 14.1591 15.939 14.4903 15.6942 14.7349C15.4494 14.9796 15.1181 15.1179 14.772 15.12H3.786ZM22.657 9.71001C23.446 9.99001 24.001 10.73 24.001 11.599C24.001 12.468 23.446 13.208 22.671 13.484L22.657 13.488V9.71001Z" fill="black"/>
</g>
<defs>
<clipPath id="clip0_154_465">
<rect width="24" height="24" fill="white"/>
</clipPath>
</defs>
</svg>
