<svg width="17" height="15" viewBox="0 0 17 15" fill="none" xmlns="http://www.w3.org/2000/svg">
<path d="M9.95795 2.52233C12.9449 2.52233 15.7318 3.66494 17.8059 5.73903L19 4.5449C16.6075 2.15159 13.3959 0.833328 9.95795 0.833328C6.51999 0.834173 3.30836 2.15159 0.915894 4.5449L2.11002 5.73903C4.18411 3.66494 6.97096 2.52233 9.95795 2.52233ZM14.7471 9.53759C12.1511 6.94159 7.76479 6.94159 5.16879 9.53759L6.36292 10.7317C8.31118 8.78345 11.6047 8.78345 13.553 10.7317L14.7471 9.53759Z" fill="black"/>
<path d="M17.083 6.99227C13.2219 3.12953 6.69479 3.12953 2.83374 6.99227L4.02786 8.18639C7.24287 4.97138 12.6738 4.97138 15.8889 8.18639L17.083 6.99227Z" fill="black"/>
<path d="M9.95795 14.3453C10.8908 14.3453 11.6469 13.5891 11.6469 12.6563C11.6469 11.7235 10.8908 10.9673 9.95795 10.9673C9.02514 10.9673 8.26895 11.7235 8.26895 12.6563C8.26895 13.5891 9.02514 14.3453 9.95795 14.3453Z" fill="black"/>
</svg>
