<svg width="348" height="39" viewBox="0 0 348 39" fill="none" xmlns="http://www.w3.org/2000/svg">
<path fill-rule="evenodd" clip-rule="evenodd" d="M4.26936 39C1.58352 33.9847 0 27.8176 0 21.15C0 12.9338 2.40451 5.47762 6.31315 0H38.6869C42.5955 5.47762 45 12.9338 45 21.15C45 27.8176 43.4165 33.9847 40.7306 39H4.26936Z" fill="#060F63"/>
<mask id="mask0_925_12275" style="mask-type:alpha" maskUnits="userSpaceOnUse" x="0" y="0" width="45" height="39">
<path fill-rule="evenodd" clip-rule="evenodd" d="M4.26936 39C1.58352 33.9847 0 27.8176 0 21.15C0 12.9338 2.40451 5.47762 6.31315 0H38.6869C42.5955 5.47762 45 12.9338 45 21.15C45 27.8176 43.4165 33.9847 40.7306 39H4.26936Z" fill="white"/>
</mask>
<g mask="url(#mask0_925_12275)">
<rect width="53.6005" height="7.71729" transform="matrix(-0.662499 0.749062 0.708707 0.705503 39.6691 -0.608093)" fill="white"/>
<rect width="27.7512" height="6.17383" transform="matrix(0.662499 0.749062 -0.708707 0.705503 5.90833 -0.336243)" fill="white"/>
</g>
<path d="M50.4717 31V7.2H60.2637C62.3717 7.2 64.1737 7.54 65.6697 8.22C67.1884 8.9 68.3557 9.87467 69.1717 11.144C69.9877 12.4133 70.3957 13.9207 70.3957 15.666C70.3957 17.4113 69.9877 18.9187 69.1717 20.188C68.3557 21.4573 67.1884 22.432 65.6697 23.112C64.1737 23.792 62.3717 24.132 60.2637 24.132H52.9197L54.8917 22.058V31H50.4717ZM54.8917 22.534L52.9197 20.392H60.0597C62.0091 20.392 63.4711 19.984 64.4457 19.168C65.4431 18.3293 65.9417 17.162 65.9417 15.666C65.9417 14.1473 65.4431 12.98 64.4457 12.164C63.4711 11.348 62.0091 10.94 60.0597 10.94H52.9197L54.8917 8.764V22.534ZM74.5756 31V12.844H78.6216V17.842L78.1456 16.38C78.6896 15.156 79.5396 14.2267 80.6956 13.592C81.8743 12.9573 83.3363 12.64 85.0816 12.64V16.686C84.9003 16.6407 84.7303 16.618 84.5716 16.618C84.413 16.5953 84.2543 16.584 84.0956 16.584C82.4863 16.584 81.2056 17.06 80.2536 18.012C79.3016 18.9413 78.8256 20.3353 78.8256 22.194V31H74.5756ZM97.0209 31.238C95.1623 31.238 93.5076 30.8413 92.0569 30.048C90.6063 29.232 89.4616 28.1213 88.6229 26.716C87.7843 25.3107 87.3649 23.7127 87.3649 21.922C87.3649 20.1087 87.7843 18.5107 88.6229 17.128C89.4616 15.7227 90.6063 14.6233 92.0569 13.83C93.5076 13.0367 95.1623 12.64 97.0209 12.64C98.9023 12.64 100.568 13.0367 102.019 13.83C103.492 14.6233 104.637 15.7113 105.453 17.094C106.292 18.4767 106.711 20.086 106.711 21.922C106.711 23.7127 106.292 25.3107 105.453 26.716C104.637 28.1213 103.492 29.232 102.019 30.048C100.568 30.8413 98.9023 31.238 97.0209 31.238ZM97.0209 27.6C98.0636 27.6 98.9929 27.3733 99.8089 26.92C100.625 26.4667 101.26 25.8093 101.713 24.948C102.189 24.0867 102.427 23.078 102.427 21.922C102.427 20.7433 102.189 19.7347 101.713 18.896C101.26 18.0347 100.625 17.3773 99.8089 16.924C98.9929 16.4707 98.0749 16.244 97.0549 16.244C96.0123 16.244 95.0829 16.4707 94.2669 16.924C93.4736 17.3773 92.8389 18.0347 92.3629 18.896C91.8869 19.7347 91.6489 20.7433 91.6489 21.922C91.6489 23.078 91.8869 24.0867 92.3629 24.948C92.8389 25.8093 93.4736 26.4667 94.2669 26.92C95.0829 27.3733 96.0009 27.6 97.0209 27.6ZM118.799 31.238C117.054 31.238 115.478 30.8527 114.073 30.082C112.69 29.2887 111.602 28.2007 110.809 26.818C110.016 25.4353 109.619 23.8033 109.619 21.922C109.619 20.0407 110.016 18.4087 110.809 17.026C111.602 15.6433 112.69 14.5667 114.073 13.796C115.478 13.0253 117.054 12.64 118.799 12.64C120.318 12.64 121.678 12.98 122.879 13.66C124.08 14.3173 125.032 15.326 125.735 16.686C126.438 18.046 126.789 19.7913 126.789 21.922C126.789 24.03 126.449 25.7753 125.769 27.158C125.089 28.518 124.148 29.538 122.947 30.218C121.746 30.898 120.363 31.238 118.799 31.238ZM119.309 27.6C120.329 27.6 121.236 27.3733 122.029 26.92C122.845 26.4667 123.491 25.8093 123.967 24.948C124.466 24.0867 124.715 23.078 124.715 21.922C124.715 20.7433 124.466 19.7347 123.967 18.896C123.491 18.0347 122.845 17.3773 122.029 16.924C121.236 16.4707 120.329 16.244 119.309 16.244C118.289 16.244 117.371 16.4707 116.555 16.924C115.762 17.3773 115.116 18.0347 114.617 18.896C114.141 19.7347 113.903 20.7433 113.903 21.922C113.903 23.078 114.141 24.0867 114.617 24.948C115.116 25.8093 115.762 26.4667 116.555 26.92C117.371 27.3733 118.289 27.6 119.309 27.6ZM124.817 31V26.716L124.987 21.888L124.647 17.06V5.772H128.863V31H124.817ZM142.481 31.238C140.939 31.238 139.579 30.9547 138.401 30.388C137.222 29.7987 136.304 28.9147 135.647 27.736C134.989 26.5347 134.661 25.0273 134.661 23.214V12.844H138.911V22.636C138.911 24.268 139.273 25.492 139.999 26.308C140.747 27.1013 141.801 27.498 143.161 27.498C144.158 27.498 145.019 27.294 145.745 26.886C146.493 26.478 147.071 25.866 147.479 25.05C147.909 24.234 148.125 23.2253 148.125 22.024V12.844H152.375V31H148.329V26.104L149.043 27.6C148.431 28.7787 147.535 29.6853 146.357 30.32C145.178 30.932 143.886 31.238 142.481 31.238ZM166.609 31.238C164.705 31.238 163.005 30.8413 161.509 30.048C160.036 29.232 158.88 28.1213 158.041 26.716C157.203 25.3107 156.783 23.7127 156.783 21.922C156.783 20.1087 157.203 18.5107 158.041 17.128C158.88 15.7227 160.036 14.6233 161.509 13.83C163.005 13.0367 164.705 12.64 166.609 12.64C168.377 12.64 169.93 13.0027 171.267 13.728C172.627 14.4307 173.659 15.4733 174.361 16.856L171.097 18.76C170.553 17.8987 169.885 17.264 169.091 16.856C168.321 16.448 167.482 16.244 166.575 16.244C165.533 16.244 164.592 16.4707 163.753 16.924C162.915 17.3773 162.257 18.0347 161.781 18.896C161.305 19.7347 161.067 20.7433 161.067 21.922C161.067 23.1007 161.305 24.1207 161.781 24.982C162.257 25.8207 162.915 26.4667 163.753 26.92C164.592 27.3733 165.533 27.6 166.575 27.6C167.482 27.6 168.321 27.396 169.091 26.988C169.885 26.58 170.553 25.9453 171.097 25.084L174.361 26.988C173.659 28.348 172.627 29.402 171.267 30.15C169.93 30.8753 168.377 31.238 166.609 31.238ZM185.442 31.238C183.447 31.238 181.906 30.728 180.818 29.708C179.73 28.6653 179.186 27.1353 179.186 25.118V8.832H183.436V25.016C183.436 25.8773 183.651 26.546 184.082 27.022C184.535 27.498 185.158 27.736 185.952 27.736C186.904 27.736 187.697 27.4867 188.332 26.988L189.522 30.014C189.023 30.422 188.411 30.728 187.686 30.932C186.96 31.136 186.212 31.238 185.442 31.238ZM176.194 16.38V12.98H188.298V16.38H176.194ZM200.92 31.238C199.061 31.238 197.407 30.8413 195.956 30.048C194.505 29.232 193.361 28.1213 192.522 26.716C191.683 25.3107 191.264 23.7127 191.264 21.922C191.264 20.1087 191.683 18.5107 192.522 17.128C193.361 15.7227 194.505 14.6233 195.956 13.83C197.407 13.0367 199.061 12.64 200.92 12.64C202.801 12.64 204.467 13.0367 205.918 13.83C207.391 14.6233 208.536 15.7113 209.352 17.094C210.191 18.4767 210.61 20.086 210.61 21.922C210.61 23.7127 210.191 25.3107 209.352 26.716C208.536 28.1213 207.391 29.232 205.918 30.048C204.467 30.8413 202.801 31.238 200.92 31.238ZM200.92 27.6C201.963 27.6 202.892 27.3733 203.708 26.92C204.524 26.4667 205.159 25.8093 205.612 24.948C206.088 24.0867 206.326 23.078 206.326 21.922C206.326 20.7433 206.088 19.7347 205.612 18.896C205.159 18.0347 204.524 17.3773 203.708 16.924C202.892 16.4707 201.974 16.244 200.954 16.244C199.911 16.244 198.982 16.4707 198.166 16.924C197.373 17.3773 196.738 18.0347 196.262 18.896C195.786 19.7347 195.548 20.7433 195.548 21.922C195.548 23.078 195.786 24.0867 196.262 24.948C196.738 25.8093 197.373 26.4667 198.166 26.92C198.982 27.3733 199.9 27.6 200.92 27.6ZM220.624 31.238C219.106 31.238 217.644 31.0453 216.238 30.66C214.856 30.252 213.756 29.7647 212.94 29.198L214.572 25.968C215.388 26.4893 216.363 26.92 217.496 27.26C218.63 27.6 219.763 27.77 220.896 27.77C222.234 27.77 223.197 27.5887 223.786 27.226C224.398 26.8633 224.704 26.376 224.704 25.764C224.704 25.2653 224.5 24.8913 224.092 24.642C223.684 24.37 223.152 24.166 222.494 24.03C221.837 23.894 221.1 23.7693 220.284 23.656C219.491 23.5427 218.686 23.3953 217.87 23.214C217.077 23.01 216.352 22.7267 215.694 22.364C215.037 21.9787 214.504 21.4687 214.096 20.834C213.688 20.1993 213.484 19.3607 213.484 18.318C213.484 17.162 213.813 16.1647 214.47 15.326C215.128 14.4647 216.046 13.8073 217.224 13.354C218.426 12.878 219.842 12.64 221.474 12.64C222.698 12.64 223.934 12.776 225.18 13.048C226.427 13.32 227.458 13.7053 228.274 14.204L226.642 17.434C225.781 16.9127 224.908 16.5613 224.024 16.38C223.163 16.176 222.302 16.074 221.44 16.074C220.148 16.074 219.185 16.2667 218.55 16.652C217.938 17.0373 217.632 17.5247 217.632 18.114C217.632 18.658 217.836 19.066 218.244 19.338C218.652 19.61 219.185 19.8253 219.842 19.984C220.5 20.1427 221.225 20.2787 222.018 20.392C222.834 20.4827 223.639 20.63 224.432 20.834C225.226 21.038 225.951 21.3213 226.608 21.684C227.288 22.024 227.832 22.5113 228.24 23.146C228.648 23.7807 228.852 24.608 228.852 25.628C228.852 26.7613 228.512 27.7473 227.832 28.586C227.175 29.4247 226.234 30.082 225.01 30.558C223.786 31.0113 222.324 31.238 220.624 31.238Z" fill="#161515"/>
<path d="M244.133 32V20.456L245.927 25.097L233.72 4.7H241.871L250.685 19.481H245.966L254.819 4.7H262.307L250.139 25.097L251.855 20.456V32H244.133ZM260.062 32L272.113 4.7H279.718L291.808 32H283.774L274.336 8.483H277.378L267.94 32H260.062ZM266.653 26.696L268.642 21.002H281.98L283.969 26.696H266.653ZM299.217 32V10.823H290.832V4.7H315.285V10.823H306.939V32H299.217ZM314.294 32L326.345 4.7H333.95L346.04 32H338.006L328.568 8.483H331.61L322.172 32H314.294ZM320.885 26.696L322.874 21.002H336.212L338.201 26.696H320.885Z" fill="#060F63"/>
</svg>
